<svg id="Layer_1" xmlns="http://www.w3.org/2000/svg" width="143" height="49" viewBox="0 0 143 49"><style>.st0{opacity:0.15;enable-background:new ;} .st1{fill:#F9D748;} .st2{fill:#4B4E4F;} .st3{fill:#D8D8D7;} .st4{fill:#E5C74C;} .st5{fill:#2A4050;} .st6{fill:#ED9332;} .st7{fill:#272634;} .st8{opacity:0.26;fill:#689FA4;enable-background:new ;}</style><path id="Shadow" class="st0" d="M140.2 48c0 .7-1.6 1-1.6 1H4s-1.6-.3-1.6-1c0-.6 1.6-1 1.6-1h134.6l1.6 1z"/><path id="Top_panel" class="st1" d="M141 25H1l.6-20.2c0-2.6 4-4.8 6.6-4.8h122.5c5.7 0 10.3 4.6 10.3 10.4V25z"/><g id="Wheel_3"><circle class="st2" cx="41.3" cy="40.8" r="7.3"/><circle class="st3" cx="41.3" cy="40.8" r="4.4"/><circle class="st2" cx="41.3" cy="40.8" r="2.2"/></g><g id="Wheel_1"><circle class="st2" cx="113.1" cy="40.8" r="7.3"/><circle class="st3" cx="113.1" cy="40.8" r="4.4"/><circle class="st2" cx="113.1" cy="40.8" r="2.2"/></g><g id="Wheel_2"><circle class="st2" cx="92" cy="40.8" r="7.3"/><circle class="st3" cx="92" cy="40.8" r="4.4"/><circle class="st2" cx="92" cy="40.8" r="2.2"/></g><path id="Bottom_panel" class="st4" d="M83 41H50v-.2c0-5-4-9-9-9s-9 4-9 9v.2H6.8L1 39V24h140v15l-10.8 2H122v-.2c0-5-4-9-9-9s-9 4-9 9v.2h-3c0-6-6-9-9-9-7 0-9 5-9 9z"/><path id="Windscreen" class="st5" d="M2 5.5S-.7 17 1.2 27c1.5-1.6 2.5-3.6 2.8-5.8V6.5c0-.6-.4-1-1-1H2z"/><path id="Headlight" class="st6" d="M2 34h-.7C.6 34 0 33.4 0 32.7v-3.4c0-.7.6-1.3 1.3-1.3H2v6z"/><path id="Front_bumper" class="st2" d="M2 39H1c-.6 0-1-.4-1-1v-1c0-.6.4-1 1-1h1v3z"/><path id="Rear_bumper" class="st7" d="M141 36h1c.6 0 1 .4 1 1v1c0 .6-.4 1-1 1h-1v-3z"/><path id="Taillight" class="st6" d="M141 22h.7c.7 0 1.3.6 1.3 1.3v3.4c0 .7-.6 1.3-1.3 1.3h-.7v-6z"/><path class="st5" d="M20 9h8v31h-8zm-9 0h8v31h-8z" id="Door"/><g id="Window_1"><path class="st5" d="M136.4 26h-14.8c-.3 0-.6-.3-.6-.6V9.6c0-.3.3-.6.6-.6h14.8c.3 0 .6.3.6.6v15.8c0 .3-.3.6-.6.6z"/><path class="st8" d="M121.2 26h15.3c.3 0 .5-.2.5-.5v-16c0-.4-.2-.6-.5-.6l-15.8 16.3c0 .3.2.5.5.5z"/></g><g id="Window_2"><path class="st5" d="M118.4 26h-14.8c-.3 0-.6-.3-.6-.6V9.6c0-.3.3-.6.6-.6h14.8c.3 0 .6.3.6.6v15.8c0 .3-.3.6-.6.6z"/><path class="st8" d="M103.2 26h15.3c.3 0 .5-.2.5-.5v-16c0-.4-.2-.6-.5-.6l-15.8 16.3c0 .3.2.5.5.5z"/></g><g id="Window_3"><path class="st5" d="M100.4 26H85.6c-.3 0-.6-.3-.6-.6V9.6c0-.3.3-.6.6-.6h14.8c.3 0 .6.3.6.6v15.8c0 .3-.3.6-.6.6z"/><path class="st8" d="M85.2 26h15.3c.3 0 .5-.2.5-.5v-16c0-.4-.2-.6-.5-.6L84.7 25.2c0 .3.2.5.5.5z"/></g><g id="Window_4"><path class="st5" d="M82.4 26H67.6c-.3 0-.6-.3-.6-.6V9.6c0-.3.3-.6.6-.6h14.8c.3 0 .6.3.6.6v15.8c0 .3-.3.6-.6.6z"/><path class="st8" d="M67.2 26h15.3c.3 0 .5-.2.5-.5v-16c0-.4-.2-.6-.5-.6L66.7 25.2c0 .3.2.5.5.5z"/></g><g id="Window_5"><path class="st5" d="M65.4 26H50.6c-.3 0-.6-.3-.6-.6V9.6c0-.3.3-.6.6-.6h14.8c.3 0 .6.3.6.6v15.8c0 .3-.3.6-.6.6z"/><path class="st8" d="M50.2 26h15.3c.3 0 .5-.2.5-.5v-16c0-.4-.2-.6-.5-.6L49.7 25.2c0 .3.2.5.5.5z"/></g><g id="Window_6"><path class="st5" d="M47.4 26H32.6c-.3 0-.6-.3-.6-.6V9.6c0-.3.3-.6.6-.6h14.8c.3 0 .6.3.6.6v15.8c0 .3-.3.6-.6.6z"/><path class="st8" d="M32.2 26h15.3c.3 0 .5-.2.5-.5v-16c0-.4-.2-.6-.5-.6L31.7 25.2c0 .3.2.5.5.5z"/></g></svg>