<svg id="Layer_1" xmlns="http://www.w3.org/2000/svg" xmlns:xlink="http://www.w3.org/1999/xlink" width="143" height="49" viewBox="0 0 143 49"><style>.st0{fill:#2A4050;} .st1{fill:#4B4E4F;} .st2{fill:#D8D8D7;} .st3{fill:#3A5966;} .st4{opacity:0.15;enable-background:new;} .st5{fill:#F9D748;} .st6{fill:#E5C74C;} .st7{fill:#ED9332;} .st8{fill:#272634;}</style><symbol id="DoorWindow" viewBox="-4 -15.5 8 31"><path class="st0" d="M-4-15.5h8v31h-8z"/></symbol><symbol id="Wheel" viewBox="-7.3 -7.3 14.6 14.6"><circle class="st1" r="7.3"/><circle class="st2" r="4.4"/><circle class="st1" r="2.2"/></symbol><symbol id="Window" viewBox="-8 -8.5 16 17"><path class="st0" d="M-8-7.9V7.9c0 .3.3.6.6.6H7.4L-8-7.9z"/><path class="st3" d="M7.4 8.5c.3 0 .6-.3.6-.6V-7.9c0-.3-.3-.6-.6-.6H-7.4c-.3 0-.6.3-.6.6L7.4 8.5z"/></symbol><path id="Shadow" class="st4" d="M140.2 48c0 .7-1.6 1-1.6 1H4s-1.6-.3-1.6-.9C2.4 47.4 4 47 4 47h134.6l1.6 1z"/><path id="Top_panel" class="st5" d="M141 25H1l.6-20.2C1.6 2.2 5.5 0 8.2 0h122.5c5.7 0 10.3 4.6 10.3 10.4V25z"/><use xlink:href="#Wheel" width="14.6" height="14.6" x="-7.3" y="-7.3" transform="matrix(1 0 0 -1 41.29 40.79)"/><path id="Bottom_panel_1_" class="st6" d="M122 41c0-4.9-3-9-9-9.1-5-.1-8 4.2-8 9.1h-4c0-6-4-9-8-9-5 0-9 3-9 9H50v-.2c0-4.9-4-8.9-9-8.9s-9 4-9 8.9v.2H6.8L1 38.9V24h140v15.1L130.2 41"/><path id="Windscreen" class="st0" d="M2 5.5S-.7 17 1.2 27c1.5-1.6 2.5-3.6 2.8-5.8V6.5c0-.6-.4-1-1-1H2z"/><path id="Headlight" class="st7" d="M2 34h-.7C.6 34 0 33.4 0 32.7v-3.4c0-.7.6-1.3 1.3-1.3H2v6z"/><path id="Front_bumper" class="st1" d="M2 39H.9c-.5 0-.9-.4-.9-.9v-1.2c0-.5.4-.9.9-.9H2v3z"/><path id="Rear_bumper" class="st8" d="M141 36h1.1c.5 0 .9.4.9.9v1.2c0 .5-.4.9-.9.9H141v-3z"/><path id="Taillight" class="st7" d="M141 22h.7c.7 0 1.3.6 1.3 1.3v3.4c0 .7-.6 1.3-1.3 1.3h-.7v-6z"/><g id="Door"><use xlink:href="#DoorWindow" width="8" height="31" x="-4" y="-15.5" transform="matrix(1 0 0 -1 24 24.5)"/><use xlink:href="#DoorWindow" width="8" height="31" x="-4" y="-15.5" transform="matrix(1 0 0 -1 15 24.5)"/></g><use xlink:href="#Window" width="16" height="17" x="-8" y="-8.5" transform="matrix(1 0 0 -1 40 17.5)"/><use xlink:href="#Window" width="16" height="17" x="-8" y="-8.5" transform="matrix(1 0 0 -1 58 17.5)"/><use xlink:href="#Window" width="16" height="17" x="-8" y="-8.5" transform="matrix(1 0 0 -1 76 17.5)"/><use xlink:href="#Window" width="16" height="17" x="-8" y="-8.5" transform="matrix(1 0 0 -1 94 17.5)"/><use xlink:href="#Window" width="16" height="17" x="-8" y="-8.5" transform="matrix(1 0 0 -1 112 17.5)"/><use xlink:href="#Window" width="16" height="17" x="-8" y="-8.5" transform="matrix(1 0 0 -1 130 17.5)"/><use xlink:href="#Wheel" width="14.6" height="14.6" x="-7.3" y="-7.3" transform="matrix(1.0274 0 0 -1.0274 113.5 40.5)"/><use xlink:href="#Wheel" width="14.6" height="14.6" x="-7.3" y="-7.3" transform="matrix(1.0274 0 0 -1.0274 92.5 40.5)"/></svg>