<?xml version="1.0" encoding="utf-8"?>
<!-- Generator: Adobe Illustrator 21.1.0, SVG Export Plug-In . SVG Version: 6.00 Build 0)  -->
<svg version="1.1" id="Layer_1" xmlns="http://www.w3.org/2000/svg" xmlns:xlink="http://www.w3.org/1999/xlink" x="0px" y="0px"
	 width="143px" height="49px" viewBox="0 0 143 49" enable-background="new 0 0 143 49" xml:space="preserve">
<path id="Shadow" opacity="0.15" enable-background="new    " d="M140.2,48c0,0.7-1.6,1-1.6,1H4c0,0-1.6-0.3-1.6-0.9l0,0
	C2.4,47.4,4,47,4,47h134.6L140.2,48L140.2,48z"/>
<path id="Top_panel" fill="#F9D748" d="M141,25H1L1.6,4.8C1.6,2.2,5.5,0,8.2,0h122.5c5.7,0,10.3,4.6,10.3,10.4l0,0V25z"/>
<g id="Wheel_3">
	<circle fill="#4B4E4F" cx="41.3" cy="40.8" r="7.3"/>
	<circle fill="#D8D8D7" cx="41.3" cy="40.8" r="4.4"/>
	<circle fill="#4B4E4F" cx="41.3" cy="40.8" r="2.2"/>
</g>
<g id="Wheel_1">
	<circle fill="#4B4E4F" cx="113.1" cy="40.8" r="7.3"/>
	<circle fill="#D8D8D7" cx="113.1" cy="40.8" r="4.4"/>
	<circle fill="#4B4E4F" cx="113.1" cy="40.8" r="2.2"/>
</g>
<g id="Wheel_2">
	<circle fill="#4B4E4F" cx="92" cy="40.8" r="7.3"/>
	<circle fill="#D8D8D7" cx="92" cy="40.8" r="4.4"/>
	<circle fill="#4B4E4F" cx="92" cy="40.8" r="2.2"/>
</g>
<path id="Bottom_panel" fill="#E5C74C" d="M83,41c0,0-33,0-33,0c0-0.1,0-0.1,0-0.2c0-4.9-4-8.9-9-8.9c-5,0-9,4-9,8.9c0,0,0,0,0,0
	c0,0.1,0,0.1,0,0.2H6.8L1,38.9V24h140v15.1L130.2,41H122c0-0.1,0-0.1,0-0.2c0-4.9-4-8.9-9-8.9c-5,0-9,4-9,8.9c0,0,0,0,0,0
	c0,0.1,0,0.1,0,0.2l-3,0c0,0,0,0,0,0c0-6-6-9-9-9C85,32,83.1,37,83,41z"/>
<path id="Windscreen" fill="#2A4050" d="M2,5.5C2,5.5-0.7,17,1.2,27c1.5-1.6,2.5-3.6,2.8-5.8V6.5c0-0.6-0.4-1-1-1L2,5.5z"/>
<path id="Headlight" fill="#ED9332" d="M2,34H1.3C0.6,34,0,33.4,0,32.7v-3.4C0,28.6,0.6,28,1.3,28H2l0,0L2,34L2,34z"/>
<path id="Front_bumper" fill="#4B4E4F" d="M2,39H0.9C0.4,39,0,38.6,0,38.1v-1.2C0,36.4,0.4,36,0.9,36H2l0,0V39L2,39L2,39z"/>
<path id="Rear_bumper" fill="#272634" d="M141,36h1.1c0.5,0,0.9,0.4,0.9,0.9v1.2c0,0.5-0.4,0.9-0.9,0.9H141l0,0V36L141,36L141,36z"
	/>
<path id="Taillight" fill="#ED9332" d="M141,22h0.7c0.7,0,1.3,0.6,1.3,1.3v3.4c0,0.7-0.6,1.3-1.3,1.3H141l0,0V22L141,22z"/>
<g id="Door">
	<rect x="20" y="9" fill="#2A4050" width="8" height="31"/>
	<rect x="11" y="9" fill="#2A4050" width="8" height="31"/>
</g>
<g id="Window_1">
	<path fill="#2A4050" d="M136.4,26h-14.8c-0.3,0-0.6-0.3-0.6-0.6V9.6c0-0.3,0.3-0.6,0.6-0.6h14.8c0.3,0,0.6,0.3,0.6,0.6v15.8
		C137,25.7,136.7,26,136.4,26z"/>
	<path opacity="0.26" fill="#689FA4" enable-background="new    " d="M121.2,26h15.3c0.3,0,0.5-0.2,0.5-0.5v0V9.4
		c0-0.3-0.2-0.5-0.5-0.5l0,0l-15.8,16.6C120.7,25.8,120.9,26,121.2,26z"/>
</g>
<g id="Window_2">
	<path fill="#2A4050" d="M118.4,26h-14.8c-0.3,0-0.6-0.3-0.6-0.6V9.6c0-0.3,0.3-0.6,0.6-0.6h14.8c0.3,0,0.6,0.3,0.6,0.6v15.8
		C119,25.7,118.7,26,118.4,26z"/>
	<path opacity="0.26" fill="#689FA4" enable-background="new    " d="M103.2,26h15.3c0.3,0,0.5-0.2,0.5-0.5v0V9.4
		c0-0.3-0.2-0.5-0.5-0.5l0,0l-15.8,16.6C102.7,25.8,102.9,26,103.2,26z"/>
</g>
<g id="Window_3">
	<path fill="#2A4050" d="M100.4,26H85.6c-0.3,0-0.6-0.3-0.6-0.6V9.6C85,9.3,85.3,9,85.6,9h14.8c0.3,0,0.6,0.3,0.6,0.6v15.8
		C101,25.7,100.7,26,100.4,26z"/>
	<path opacity="0.26" fill="#689FA4" enable-background="new    " d="M85.2,26h15.3c0.3,0,0.5-0.2,0.5-0.5v0V9.4
		c0-0.3-0.2-0.5-0.5-0.5l0,0L84.7,25.5C84.6,25.8,84.9,26,85.2,26C85.2,26,85.2,26,85.2,26z"/>
</g>
<g id="Window_4">
	<path fill="#2A4050" d="M82.4,26H67.6c-0.3,0-0.6-0.3-0.6-0.6V9.6C67,9.3,67.3,9,67.6,9h14.8C82.7,9,83,9.3,83,9.6v15.8
		C83,25.7,82.7,26,82.4,26z"/>
	<path opacity="0.26" fill="#689FA4" enable-background="new    " d="M67.2,26h15.3c0.3,0,0.5-0.2,0.5-0.5v0V9.4
		c0-0.3-0.2-0.5-0.5-0.5l0,0L66.7,25.5C66.7,25.8,66.9,26,67.2,26z"/>
</g>
<g id="Window_5">
	<path fill="#2A4050" d="M65.4,26H50.6c-0.3,0-0.6-0.3-0.6-0.6V9.6C50,9.3,50.3,9,50.6,9h14.8C65.7,9,66,9.3,66,9.6v15.8
		C66,25.7,65.7,26,65.4,26z"/>
	<path opacity="0.26" fill="#689FA4" enable-background="new    " d="M50.2,26h15.3c0.3,0,0.5-0.2,0.5-0.5v0V9.4
		c0-0.3-0.2-0.5-0.5-0.5l0,0L49.7,25.5C49.7,25.8,49.9,26,50.2,26z"/>
</g>
<g id="Window_6">
	<path fill="#2A4050" d="M47.4,26H32.6c-0.3,0-0.6-0.3-0.6-0.6V9.6C32,9.3,32.3,9,32.6,9h14.8C47.7,9,48,9.3,48,9.6v15.8
		C48,25.7,47.7,26,47.4,26z"/>
	<path opacity="0.26" fill="#689FA4" enable-background="new    " d="M32.2,26h15.3c0.3,0,0.5-0.2,0.5-0.5v0V9.4
		c0-0.3-0.2-0.5-0.5-0.5l0,0L31.7,25.5C31.7,25.8,31.9,26,32.2,26z"/>
</g>
</svg>
