<svg xmlns="http://www.w3.org/2000/svg" width="143" height="49" viewBox="0 0 143 49"><path opacity=".1" d="M140.2 48c0 .7-1.6 1-1.6 1H4s-1.6-.3-1.6-1c0-.6 1.6-1 1.6-1h134.6l1.6 1z"/><path fill="#F9D748" d="M141 25H1l.6-20.2c0-2.6 4-4.8 6.6-4.8h122.5c5.7 0 10.3 4.6 10.3 10.4V25z"/><circle fill="#4B4E4F" cx="41.3" cy="40.8" r="7.3"/><circle fill="#D8D8D7" cx="41.3" cy="40.8" r="4.4"/><circle fill="#4B4E4F" cx="41.3" cy="40.8" r="2.2"/><circle fill="#4B4E4F" cx="113.1" cy="40.8" r="7.3"/><circle fill="#D8D8D7" cx="113.1" cy="40.8" r="4.4"/><circle fill="#4B4E4F" cx="113.1" cy="40.8" r="2.2"/><circle fill="#4B4E4F" cx="92" cy="40.8" r="7.3"/><circle fill="#D8D8D7" cx="92" cy="40.8" r="4.4"/><circle fill="#4B4E4F" cx="92" cy="40.8" r="2.2"/><path fill="#E5C74C" d="M83 41H50v-.2c0-5-4-9-9-9s-9 4-9 9v.2H6.8L1 39V24h140v15l-10.8 2H122v-.2c0-5-4-9-9-9s-9 4-9 9v.2h-3c0-6-6-9-9-9-7 0-9 5-9 9z"/><path fill="#2A4050" d="M2 5.5S-.7 17 1.2 27c1.5-1.6 2.5-3.6 2.8-5.8V6.5c0-.6-.4-1-1-1H2z"/><path fill="#ED9332" d="M2 34h-.7C.6 34 0 33.4 0 32.7v-3.4c0-.7.6-1.3 1.3-1.3H2v6z"/><path fill="#4B4E4F" d="M2 39H1c-.6 0-1-.4-1-1v-1c0-.6.4-1 1-1h1v3z"/><path fill="#272634" d="M141 36h1c.6 0 1 .4 1 1v1c0 .6-.4 1-1 1h-1v-3z"/><path fill="#ED9332" d="M141 22h.7c.7 0 1.3.6 1.3 1.3v3.4c0 .7-.6 1.3-1.3 1.3h-.7v-6z"/><path d="M20 9h8v31h-8zm-9 0h8v31h-8zm125.4 17h-14.8c-.3 0-.6-.3-.6-.6V9.6c0-.3.3-.6.6-.6h14.8c.3 0 .6.3.6.6v15.8c0 .3-.3.6-.6.6z" fill="#2A4050"/><path opacity=".3" fill="#689FA4" d="M121.2 26h15.3c.3 0 .5-.2.5-.5v-16c0-.4-.2-.6-.5-.6l-15.8 16c0 .3.2.5.5.5z"/><path fill="#2A4050" d="M118.4 26h-14.8c-.3 0-.6-.3-.6-.6V9.6c0-.3.3-.6.6-.6h14.8c.3 0 .6.3.6.6v15.8c0 .3-.3.6-.6.6z"/><path opacity=".3" fill="#689FA4" d="M103.2 26h15.3c.3 0 .5-.2.5-.5v-16c0-.4-.2-.6-.5-.6l-15.8 16c0 .3.2.5.5.5z"/><path fill="#2A4050" d="M100.4 26H85.6c-.3 0-.6-.3-.6-.6V9.6c0-.3.3-.6.6-.6h14.8c.3 0 .6.3.6.6v15.8c0 .3-.3.6-.6.6z"/><path opacity=".3" fill="#689FA4" d="M85.2 26h15.3c.3 0 .5-.2.5-.5v-16c0-.4-.2-.6-.5-.6L84.7 25c0 .3.2.5.5.5z"/><path fill="#2A4050" d="M82.4 26H67.6c-.3 0-.6-.3-.6-.6V9.6c0-.3.3-.6.6-.6h14.8c.3 0 .6.3.6.6v15.8c0 .3-.3.6-.6.6z"/><path opacity=".3" fill="#689FA4" d="M67.2 26h15.3c.3 0 .5-.2.5-.5v-16c0-.4-.2-.6-.5-.6L66.7 25c0 .3.2.5.5.5z"/><path fill="#2A4050" d="M65.4 26H50.6c-.3 0-.6-.3-.6-.6V9.6c0-.3.3-.6.6-.6h14.8c.3 0 .6.3.6.6v15.8c0 .3-.3.6-.6.6z"/><path opacity=".3" fill="#689FA4" d="M50.2 26h15.3c.3 0 .5-.2.5-.5v-16c0-.4-.2-.6-.5-.6L49.7 25c0 .3.2.5.5.5z"/><path fill="#2A4050" d="M47.4 26H32.6c-.3 0-.6-.3-.6-.6V9.6c0-.3.3-.6.6-.6h14.8c.3 0 .6.3.6.6v15.8c0 .3-.3.6-.6.6z"/><path opacity=".3" fill="#689FA4" d="M32.2 26h15.3c.3 0 .5-.2.5-.5v-16c0-.4-.2-.6-.5-.6L31.7 25c0 .3.2.5.5.5z"/></svg>